# xmcd
#
# Track frame offsets:
#	150
#	13675
#	31350
#	57262
#	68775
#	78450
#	92700
#	102825
#	122775
#	135525
#
# Disc length: 2044 seconds
#
# Revision: 1
# Processed by: cddbd v1.5.1PL2 Copyright (c) Steve Scherf et al.
# Submitted via: EasyCDDAExtractor 5.1.0
#
DISCID=7f07fa0a
DTITLE=Marty Robbins - All Around Cowboy
DYEAR=1994
DGENRE=Country
TTITLE0=All Around Cowboy
TTITLE1=The Dreamer
TTITLE2=Pride and the Badge
TTITLE3=Restless Cattle
TTITLE4=When I'm Gone
TTITLE5=Buenos Dias Argentina
TTITLE6=Lonely Old Bunkhouse
TTITLE7=San Angelo
TTITLE8=Tumbling Tumbleweeds
TTITLE9=Ballad of a Small Man
EXTD=
EXTT0=
EXTT1=
EXTT2=
EXTT3=
EXTT4=
EXTT5=
EXTT6=
EXTT7=
EXTT8=
EXTT9=
PLAYORDER=
